<svg width="783" height="636" viewBox="0 0 783 636" fill="none" xmlns="http://www.w3.org/2000/svg">
<g clip-path="url(#clip0_1225_334)">
<path d="M461.375 505.725C461.375 536.381 479.228 551.698 514.983 551.698H530.289C591.538 546.602 651.515 494.88 710.241 396.539C717.883 385.044 727.145 379.299 738.006 379.299C748.866 379.299 759.054 384.096 768.642 393.667C778.206 403.26 783 411.557 783 418.577C783 425.596 782.35 430.371 781.077 432.918C738.954 504.451 692.037 556.17 640.352 588.1C588.668 620.029 541.425 635.996 498.679 635.996C455.932 635.996 422.425 625.476 398.181 604.391C373.936 583.329 361.825 553.622 361.825 515.293C361.825 459.125 378.405 381.548 411.587 282.557C444.769 183.592 461.375 130.596 461.375 123.55C461.375 116.504 457.205 113.008 448.917 113.008C440.629 113.008 419.256 128.672 384.797 159.955C350.338 191.235 308.543 243.932 259.405 317.987C210.266 392.068 170.364 475.069 139.754 567.015C128.267 593.849 116.783 610.787 105.296 617.811C93.808 624.83 76.5823 628.33 53.611 628.33C30.6397 628.33 15.9564 621.008 9.56477 606.319C3.17314 591.626 0 569.593 0 540.207V507.649C0 439.964 7.64199 362.712 22.9713 275.862C38.278 189.012 58.7032 116.232 84.2206 57.4677L95.7081 34.4814C96.9811 31.9336 100.177 27.1368 105.296 20.1135C110.388 13.094 115.506 8.61845 120.602 6.6982C125.694 4.80063 133.363 3.82538 143.573 3.82538C153.784 3.82538 163.999 7.67344 174.209 15.3204C184.398 22.9901 189.516 30.6598 189.516 38.3067C172.936 76.6324 152.511 146.869 128.267 249.032C106.542 343.551 94.4351 422.727 91.889 486.564C155.711 326.934 227.82 205.932 308.218 123.554C388.616 41.2022 452.411 0 499.653 0C525.171 0 545.271 6.3958 559.954 19.1647C574.638 31.9336 581.977 43.75 581.977 54.5949C581.977 65.4397 581.328 72.1606 580.081 74.7083C514.964 262.447 475.413 406.137 461.379 505.729L461.375 505.725Z" fill="white"/>
</g>
<defs>
<clipPath id="clip0_1225_334">
<rect width="783" height="636" fill="white"/>
</clipPath>
</defs>
</svg>
